<mxfile host="app.diagrams.net" modified="2023-03-20T01:18:15.232Z" agent="5.0 (Windows NT 10.0; Win64; x64) AppleWebKit/537.36 (KHTML, like Gecko) Chrome/111.0.0.0 Safari/537.36" etag="ixwkCCye4_KUX99F3xqk" version="21.0.8" type="github">
  <diagram name="Page-1" id="htW07n8LYYYhgj7FKJxG">
    <mxGraphModel dx="1687" dy="832" grid="1" gridSize="10" guides="1" tooltips="1" connect="1" arrows="1" fold="1" page="1" pageScale="1" pageWidth="850" pageHeight="1100" math="0" shadow="0">
      <root>
        <mxCell id="0" />
        <mxCell id="1" parent="0" />
        <mxCell id="3CGPZZpxTsE3SwU_6RhS-4" style="edgeStyle=orthogonalEdgeStyle;rounded=0;orthogonalLoop=1;jettySize=auto;html=1;exitX=0.5;exitY=1;exitDx=0;exitDy=0;" edge="1" parent="1" source="3CGPZZpxTsE3SwU_6RhS-1" target="3CGPZZpxTsE3SwU_6RhS-5">
          <mxGeometry relative="1" as="geometry">
            <mxPoint x="420" y="210" as="targetPoint" />
          </mxGeometry>
        </mxCell>
        <mxCell id="3CGPZZpxTsE3SwU_6RhS-1" value="Find the average load of each machine" style="rounded=0;whiteSpace=wrap;html=1;" vertex="1" parent="1">
          <mxGeometry x="340" y="120" width="160" height="80" as="geometry" />
        </mxCell>
        <mxCell id="3CGPZZpxTsE3SwU_6RhS-3" style="edgeStyle=orthogonalEdgeStyle;rounded=0;orthogonalLoop=1;jettySize=auto;html=1;exitX=0.5;exitY=1;exitDx=0;exitDy=0;" edge="1" parent="1" source="3CGPZZpxTsE3SwU_6RhS-2" target="3CGPZZpxTsE3SwU_6RhS-1">
          <mxGeometry relative="1" as="geometry" />
        </mxCell>
        <mxCell id="3CGPZZpxTsE3SwU_6RhS-2" value="Perform the HAMM algorithm to initially assign tasks to machines" style="rounded=0;whiteSpace=wrap;html=1;" vertex="1" parent="1">
          <mxGeometry x="340" y="10" width="160" height="90" as="geometry" />
        </mxCell>
        <mxCell id="3CGPZZpxTsE3SwU_6RhS-22" style="edgeStyle=orthogonalEdgeStyle;rounded=0;orthogonalLoop=1;jettySize=auto;html=1;exitX=0.5;exitY=1;exitDx=0;exitDy=0;entryX=0.5;entryY=0;entryDx=0;entryDy=0;" edge="1" parent="1" source="3CGPZZpxTsE3SwU_6RhS-5" target="3CGPZZpxTsE3SwU_6RhS-19">
          <mxGeometry relative="1" as="geometry" />
        </mxCell>
        <mxCell id="3CGPZZpxTsE3SwU_6RhS-5" value="Create a list highLoad containing the machines where the load is greater than T% compared to the average load" style="rounded=0;whiteSpace=wrap;html=1;" vertex="1" parent="1">
          <mxGeometry x="340" y="220" width="160" height="80" as="geometry" />
        </mxCell>
        <mxCell id="3CGPZZpxTsE3SwU_6RhS-40" style="edgeStyle=orthogonalEdgeStyle;rounded=0;orthogonalLoop=1;jettySize=auto;html=1;exitX=0.5;exitY=1;exitDx=0;exitDy=0;entryX=0.5;entryY=0;entryDx=0;entryDy=0;" edge="1" parent="1" source="3CGPZZpxTsE3SwU_6RhS-19" target="3CGPZZpxTsE3SwU_6RhS-54">
          <mxGeometry relative="1" as="geometry">
            <mxPoint x="420" y="430" as="targetPoint" />
          </mxGeometry>
        </mxCell>
        <mxCell id="3CGPZZpxTsE3SwU_6RhS-45" style="edgeStyle=orthogonalEdgeStyle;rounded=0;orthogonalLoop=1;jettySize=auto;html=1;exitX=1;exitY=0.5;exitDx=0;exitDy=0;entryX=0;entryY=0.5;entryDx=0;entryDy=0;" edge="1" parent="1" source="3CGPZZpxTsE3SwU_6RhS-19">
          <mxGeometry relative="1" as="geometry">
            <mxPoint x="610" y="360" as="targetPoint" />
          </mxGeometry>
        </mxCell>
        <mxCell id="3CGPZZpxTsE3SwU_6RhS-19" value="While highLoad is not empty, look at each machine in highLoad: Mi" style="rounded=0;whiteSpace=wrap;html=1;" vertex="1" parent="1">
          <mxGeometry x="340" y="320" width="160" height="80" as="geometry" />
        </mxCell>
        <mxCell id="3CGPZZpxTsE3SwU_6RhS-31" value="No" style="text;html=1;align=center;verticalAlign=middle;resizable=0;points=[];autosize=1;strokeColor=none;fillColor=none;" vertex="1" parent="1">
          <mxGeometry x="280" y="540" width="40" height="30" as="geometry" />
        </mxCell>
        <mxCell id="3CGPZZpxTsE3SwU_6RhS-32" value="Yes" style="text;html=1;align=center;verticalAlign=middle;resizable=0;points=[];autosize=1;strokeColor=none;fillColor=none;" vertex="1" parent="1">
          <mxGeometry x="520" y="550" width="40" height="30" as="geometry" />
        </mxCell>
        <mxCell id="3CGPZZpxTsE3SwU_6RhS-66" style="edgeStyle=orthogonalEdgeStyle;rounded=0;orthogonalLoop=1;jettySize=auto;html=1;exitX=1;exitY=0.5;exitDx=0;exitDy=0;" edge="1" parent="1" source="3CGPZZpxTsE3SwU_6RhS-35" target="3CGPZZpxTsE3SwU_6RhS-54">
          <mxGeometry relative="1" as="geometry">
            <mxPoint x="620" y="450" as="targetPoint" />
            <Array as="points">
              <mxPoint x="610" y="640" />
              <mxPoint x="610" y="450" />
            </Array>
          </mxGeometry>
        </mxCell>
        <mxCell id="3CGPZZpxTsE3SwU_6RhS-35" value="Move the task" style="rounded=0;whiteSpace=wrap;html=1;" vertex="1" parent="1">
          <mxGeometry x="440" y="600" width="160" height="80" as="geometry" />
        </mxCell>
        <mxCell id="3CGPZZpxTsE3SwU_6RhS-64" style="edgeStyle=orthogonalEdgeStyle;rounded=0;orthogonalLoop=1;jettySize=auto;html=1;exitX=0;exitY=0.5;exitDx=0;exitDy=0;entryX=0;entryY=0.5;entryDx=0;entryDy=0;" edge="1" parent="1" source="3CGPZZpxTsE3SwU_6RhS-38" target="3CGPZZpxTsE3SwU_6RhS-19">
          <mxGeometry relative="1" as="geometry">
            <mxPoint x="200" y="350" as="targetPoint" />
          </mxGeometry>
        </mxCell>
        <mxCell id="3CGPZZpxTsE3SwU_6RhS-38" value="Remove this machine from the highLoad list" style="rounded=0;whiteSpace=wrap;html=1;" vertex="1" parent="1">
          <mxGeometry x="240" y="600" width="160" height="80" as="geometry" />
        </mxCell>
        <mxCell id="3CGPZZpxTsE3SwU_6RhS-42" value="highLoad empty" style="text;html=1;strokeColor=none;fillColor=none;align=center;verticalAlign=middle;whiteSpace=wrap;rounded=0;" vertex="1" parent="1">
          <mxGeometry x="530" y="330" width="60" height="30" as="geometry" />
        </mxCell>
        <mxCell id="3CGPZZpxTsE3SwU_6RhS-50" value="Figure 1: EHAMM Rescheduling" style="text;html=1;strokeColor=none;fillColor=none;align=center;verticalAlign=middle;whiteSpace=wrap;rounded=0;" vertex="1" parent="1">
          <mxGeometry x="330" y="740" width="190" height="30" as="geometry" />
        </mxCell>
        <mxCell id="3CGPZZpxTsE3SwU_6RhS-51" value="End rescheduling phase" style="ellipse;whiteSpace=wrap;html=1;" vertex="1" parent="1">
          <mxGeometry x="610" y="310" width="140" height="100" as="geometry" />
        </mxCell>
        <mxCell id="3CGPZZpxTsE3SwU_6RhS-53" style="edgeStyle=orthogonalEdgeStyle;rounded=0;orthogonalLoop=1;jettySize=auto;html=1;exitX=1;exitY=0.5;exitDx=0;exitDy=0;entryX=0;entryY=0.5;entryDx=0;entryDy=0;" edge="1" parent="1" source="3CGPZZpxTsE3SwU_6RhS-52" target="3CGPZZpxTsE3SwU_6RhS-2">
          <mxGeometry relative="1" as="geometry" />
        </mxCell>
        <mxCell id="3CGPZZpxTsE3SwU_6RhS-52" value="Start with set of tasks" style="ellipse;whiteSpace=wrap;html=1;" vertex="1" parent="1">
          <mxGeometry x="180" y="5" width="140" height="100" as="geometry" />
        </mxCell>
        <mxCell id="3CGPZZpxTsE3SwU_6RhS-63" style="edgeStyle=orthogonalEdgeStyle;rounded=0;orthogonalLoop=1;jettySize=auto;html=1;exitX=0;exitY=0.5;exitDx=0;exitDy=0;entryX=0.25;entryY=0;entryDx=0;entryDy=0;" edge="1" parent="1" source="3CGPZZpxTsE3SwU_6RhS-54" target="3CGPZZpxTsE3SwU_6RhS-38">
          <mxGeometry relative="1" as="geometry" />
        </mxCell>
        <mxCell id="3CGPZZpxTsE3SwU_6RhS-65" style="edgeStyle=orthogonalEdgeStyle;rounded=0;orthogonalLoop=1;jettySize=auto;html=1;exitX=1;exitY=0.5;exitDx=0;exitDy=0;entryX=0.75;entryY=0;entryDx=0;entryDy=0;" edge="1" parent="1" source="3CGPZZpxTsE3SwU_6RhS-54" target="3CGPZZpxTsE3SwU_6RhS-35">
          <mxGeometry relative="1" as="geometry" />
        </mxCell>
        <mxCell id="3CGPZZpxTsE3SwU_6RhS-54" value="" style="rhombus;whiteSpace=wrap;html=1;direction=east;" vertex="1" parent="1">
          <mxGeometry x="315" y="420" width="210" height="170" as="geometry" />
        </mxCell>
        <mxCell id="3CGPZZpxTsE3SwU_6RhS-55" value="if moving the smallest task &lt;br&gt;in Mi to the smallest load &lt;br&gt;machine results&lt;br&gt;&amp;nbsp;in a lower load variance" style="text;html=1;align=center;verticalAlign=middle;resizable=0;points=[];autosize=1;strokeColor=none;fillColor=none;" vertex="1" parent="1">
          <mxGeometry x="340" y="470" width="160" height="70" as="geometry" />
        </mxCell>
      </root>
    </mxGraphModel>
  </diagram>
</mxfile>
